{"asset":{"version":"2.0","generator":"Blockbench 4.12.6 glTF exporter"},"scenes":[{"nodes":[4],"name":"blockbench_export"}],"scene":0,"nodes":[{"translation":[1.7548946791858398e-18,-0.0007537478466840275,0.011168981481481481],"name":"sphere","mesh":0},{"translation":[1.7548946791858398e-18,0.14612125215331612,0.011168981481481481],"name":"cuboid","mesh":1},{"rotation":[0,0,0.7071067811865475,0.7071067811865476],"translation":[1.7548946791858398e-18,0.18987125215331618,-0.02008101851851852],"name":"plane","mesh":2},{"rotation":[0.2566048122925708,-0.12607862007251905,-0.033782664431261836,0.9576621969425486],"translation":[-1.7548946791858398e-18,0.15387874784668404,-0.011168981481481481],"name":"apple","children":[0,1,2]},{"children":[3]}],"bufferViews":[{"buffer":0,"byteOffset":0,"byteLength":4320,"target":34962,"byteStride":12},{"buffer":0,"byteOffset":4320,"byteLength":4320,"target":34962,"byteStride":12},{"buffer":0,"byteOffset":8640,"byteLength":2880,"target":34962,"byteStride":8},{"buffer":0,"byteOffset":11520,"byteLength":1008,"target":34963},{"buffer":0,"byteOffset":12528,"byteLength":672,"target":34962,"byteStride":12},{"buffer":0,"byteOffset":13200,"byteLength":672,"target":34962,"byteStride":12},{"buffer":0,"byteOffset":13872,"byteLength":448,"target":34962,"byteStride":8},{"buffer":0,"byteOffset":14320,"byteLength":168,"target":34963},{"buffer":0,"byteOffset":14488,"byteLength":192,"target":34962,"byteStride":12},{"buffer":0,"byteOffset":14680,"byteLength":192,"target":34962,"byteStride":12},{"buffer":0,"byteOffset":14872,"byteLength":128,"target":34962,"byteStride":8},{"buffer":0,"byteOffset":15000,"byteLength":48,"target":34963}],"buffers":[{"byteLength":15048,"uri":"data:application/octet-stream;base64,"}],"accessors":[{"bufferView":0,"componentType":5126,"count":360,"max":[0.16625000536441803,0.1448574960231781,0.16625000536441803],"min":[-0.16625000536441803,-0.1599999964237213,-0.16625000536441803],"type":"VEC3"},{"bufferView":1,"componentType":5126,"count":360,"max":[0.9659262895584106,0.999322235584259,0.9659262895584106],"min":[-0.9659262895584106,-0.9595460295677185,-0.9659262895584106],"type":"VEC3"},{"bufferView":2,"componentType":5126,"count":360,"max":[0.7334069013595581,0.6968843936920166],"min":[0,0],"type":"VEC2"},{"bufferView":3,"componentType":5123,"count":504,"max":[359],"min":[0],"type":"SCALAR"},{"bufferView":4,"componentType":5126,"count":56,"max":[0.025158749893307686,0.07987374812364578,0.01875000074505806],"min":[-0.01875000074505806,-0.012500000186264515,-0.0248393751680851],"type":"VEC3"},{"bufferView":5,"componentType":5126,"count":56,"max":[1,0.9829629063606262,0.9827254414558411],"min":[-0.9789108037948608,-1,-1],"type":"VEC3"},{"bufferView":6,"componentType":5126,"count":56,"max":[0.6515218615531921,0.71875],"min":[0,0.3125],"type":"VEC2"},{"bufferView":7,"componentType":5123,"count":84,"max":[55],"min":[0],"type":"SCALAR"},{"bufferView":8,"componentType":5126,"count":16,"max":[0.024467499926686287,0.004043749999254942,0.02500000037252903],"min":[-0.01875000074505806,-0.004043749999254942,-0.03125],"type":"VEC3"},{"bufferView":9,"componentType":5126,"count":16,"max":[0.35828596353530884,0.9821145534515381,0.2571522891521454],"min":[-0.28386390209198,0.8999629020690918,-0.2172156125307083],"type":"VEC3"},{"bufferView":10,"componentType":5126,"count":16,"max":[0.71875,0.71875],"min":[0.25152501463890076,0.3125],"type":"VEC2"},{"bufferView":11,"componentType":5123,"count":24,"max":[15],"min":[0],"type":"SCALAR"}],"materials":[{"pbrMetallicRoughness":{"metallicFactor":0,"roughnessFactor":1,"baseColorTexture":{"index":0}},"alphaMode":"MASK","alphaCutoff":0.05,"doubleSided":true}],"textures":[{"sampler":0,"source":0,"name":"apple.png"}],"samplers":[{"magFilter":9728,"minFilter":9728,"wrapS":33071,"wrapT":33071}],"images":[{"mimeType":"image/png","uri":"data:image/png;base64,"}],"meshes":[{"primitives":[{"mode":4,"attributes":{"POSITION":0,"NORMAL":1,"TEXCOORD_0":2},"indices":3,"material":0}]},{"primitives":[{"mode":4,"attributes":{"POSITION":4,"NORMAL":5,"TEXCOORD_0":6},"indices":7,"material":0}]},{"primitives":[{"mode":4,"attributes":{"POSITION":8,"NORMAL":9,"TEXCOORD_0":10},"indices":11,"material":0}]}]}