{
	"asset":{
		"generator":"Khronos glTF Blender I/O v4.2.69",
		"version":"2.0"
	},
	"scene":0,
	"scenes":[
		{
			"name":"Scene",
			"nodes":[
				0,
				1
			]
		}
	],
	"nodes":[
		{
			"mesh":0,
			"name":"Plane",
			"scale":[
				0.16736936569213867,
				0.16736936569213867,
				0.16736936569213867
			],
			"translation":[
				0,
				0.42554187774658203,
				0
			]
		},
		{
			"mesh":1,
			"name":"Plane.001",
			"scale":[
				0.16736936569213867,
				0.16736936569213867,
				0.16736936569213867
			],
			"translation":[
				0,
				0.42554187774658203,
				0
			]
		}
	],
	"materials":[
		{
			"doubleSided":true,
			"name":"Material",
			"pbrMetallicRoughness":{
				"metallicFactor":0.9348658919334412,
				"roughnessFactor":0.10153257846832275
			}
		},
		{
			"doubleSided":true,
			"name":"Material.001"
		}
	],
	"meshes":[
		{
			"name":"Plane.001",
			"primitives":[
				{
					"attributes":{
						"POSITION":0,
						"NORMAL":1,
						"TEXCOORD_0":2
					},
					"indices":3,
					"material":0
				},
				{
					"attributes":{
						"POSITION":4,
						"NORMAL":5,
						"TEXCOORD_0":6
					},
					"indices":7,
					"material":1
				}
			]
		},
		{
			"name":"Plane.002",
			"primitives":[
				{
					"attributes":{
						"POSITION":8,
						"NORMAL":9,
						"TEXCOORD_0":10
					},
					"indices":11,
					"material":1
				}
			]
		}
	],
	"accessors":[
		{
			"bufferView":0,
			"componentType":5126,
			"count":940,
			"max":[
				0.9768726825714111,
				2.142582893371582,
				1.145821213722229
			],
			"min":[
				-0.9888802766799927,
				-2.543564558029175,
				-1.961598515510559
			],
			"type":"VEC3"
		},
		{
			"bufferView":1,
			"componentType":5126,
			"count":940,
			"type":"VEC3"
		},
		{
			"bufferView":2,
			"componentType":5126,
			"count":940,
			"type":"VEC2"
		},
		{
			"bufferView":3,
			"componentType":5123,
			"count":3612,
			"type":"SCALAR"
		},
		{
			"bufferView":4,
			"componentType":5126,
			"count":1106,
			"max":[
				1.0299999713897705,
				0.029999999329447746,
				1.0299999713897705
			],
			"min":[
				-1.0299999713897705,
				-0.1452317237854004,
				-1.0834952592849731
			],
			"type":"VEC3"
		},
		{
			"bufferView":5,
			"componentType":5126,
			"count":1106,
			"type":"VEC3"
		},
		{
			"bufferView":6,
			"componentType":5126,
			"count":1106,
			"type":"VEC2"
		},
		{
			"bufferView":7,
			"componentType":5123,
			"count":4848,
			"type":"SCALAR"
		},
		{
			"bufferView":8,
			"componentType":5126,
			"count":226920,
			"max":[
				1.269611120223999,
				2.1887590885162354,
				-1.5542500019073486
			],
			"min":[
				-1.2718706130981445,
				1.3605701923370361,
				-1.9408290386199951
			],
			"type":"VEC3"
		},
		{
			"bufferView":9,
			"componentType":5126,
			"count":226920,
			"type":"VEC3"
		},
		{
			"bufferView":10,
			"componentType":5126,
			"count":226920,
			"type":"VEC2"
		},
		{
			"bufferView":11,
			"componentType":5125,
			"count":1290528,
			"type":"SCALAR"
		}
	],
	"bufferViews":[
		{
			"buffer":0,
			"byteLength":11280,
			"byteOffset":0,
			"target":34962
		},
		{
			"buffer":0,
			"byteLength":11280,
			"byteOffset":11280,
			"target":34962
		},
		{
			"buffer":0,
			"byteLength":7520,
			"byteOffset":22560,
			"target":34962
		},
		{
			"buffer":0,
			"byteLength":7224,
			"byteOffset":30080,
			"target":34963
		},
		{
			"buffer":0,
			"byteLength":13272,
			"byteOffset":37304,
			"target":34962
		},
		{
			"buffer":0,
			"byteLength":13272,
			"byteOffset":50576,
			"target":34962
		},
		{
			"buffer":0,
			"byteLength":8848,
			"byteOffset":63848,
			"target":34962
		},
		{
			"buffer":0,
			"byteLength":9696,
			"byteOffset":72696,
			"target":34963
		},
		{
			"buffer":0,
			"byteLength":2723040,
			"byteOffset":82392,
			"target":34962
		},
		{
			"buffer":0,
			"byteLength":2723040,
			"byteOffset":2805432,
			"target":34962
		},
		{
			"buffer":0,
			"byteLength":1815360,
			"byteOffset":5528472,
			"target":34962
		},
		{
			"buffer":0,
			"byteLength":5162112,
			"byteOffset":7343832,
			"target":34963
		}
	],
	"buffers":[
		{
			"byteLength":12505944,
			"uri":"Chair.bin"
		}
	]
}
